<?xml version="1.0" standalone="no"?>
<!DOCTYPE svg PUBLIC "-//W3C//DTD SVG 20010904//EN"
 "http://www.w3.org/TR/2001/REC-SVG-20010904/DTD/svg10.dtd">
<svg version="1.0" xmlns="http://www.w3.org/2000/svg"
 width="512.000000pt" height="512.000000pt" viewBox="0 0 512.000000 512.000000"
 preserveAspectRatio="xMidYMid meet">
<metadata>
Created by potrace 1.11, written by Peter Selinger 2001-2013
</metadata>
<g transform="translate(0.000000,512.000000) scale(0.100000,-0.100000)"
fill="#000000" stroke="none">
<path d="M390 5094 c-86 -37 -130 -111 -138 -231 l-5 -83 -103 0 c-154 0 -144
29 -144 -400 0 -429 -11 -400 146 -400 l104 0 0 -55 c0 -88 17 -148 57 -194
53 -62 83 -75 198 -81 l100 -5 5 -610 c5 -609 5 -610 28 -656 49 -100 154
-170 267 -177 116 -7 236 63 293 173 26 49 27 54 32 295 6 266 6 271 65 316
45 34 122 38 162 8 62 -47 68 -63 73 -227 5 -140 7 -156 33 -209 53 -109 146
-169 273 -176 73 -4 88 -1 143 23 76 35 142 104 170 181 20 53 21 75 21 559
l0 505 1189 0 1189 0 53 28 c39 20 62 41 84 77 l30 48 3 249 3 248 103 0 c160
0 146 47 146 -498 l0 -451 -22 -25 c-23 -26 -28 -26 -1098 -151 -591 -69
-1106 -130 -1145 -135 -85 -13 -146 -47 -183 -102 l-27 -42 -5 -415 -5 -416
-130 -3 c-190 -4 -175 27 -175 -357 l0 -312 23 -21 c13 -12 31 -22 40 -22 14
0 17 -11 17 -75 0 -71 -1 -75 -25 -81 -55 -14 -55 -15 -55 -450 0 -455 4 -482
78 -579 210 -276 645 -162 693 182 5 40 8 403 7 871 l-3 804 -24 19 c-20 17
-40 19 -157 19 l-134 0 0 393 c0 215 4 397 8 403 4 6 17 16 28 22 12 6 525 70
1140 142 667 78 1136 136 1161 146 52 19 118 89 132 140 7 25 11 205 11 505
l0 465 -26 52 c-18 35 -41 63 -72 85 -46 31 -49 32 -174 35 l-128 4 0 238 c0
143 -4 250 -11 267 -21 56 -61 102 -112 128 l-51 25 -386 0 -387 0 -21 -23
c-27 -29 -28 -67 -3 -98 l19 -24 381 -3 380 -3 21 -26 c20 -25 20 -37 20 -553
0 -518 0 -528 -21 -554 l-20 -26 -1359 -2 c-1319 -3 -1359 -4 -1379 -22 -12
-11 -21 -27 -21 -38 0 -16 -9 -18 -74 -18 -72 0 -74 1 -85 29 -7 15 -24 33
-37 40 -18 8 -187 11 -573 11 -525 0 -550 1 -572 19 l-24 19 0 542 0 542 24
19 c23 19 62 19 1552 19 1098 0 1535 3 1552 11 47 21 56 80 19 122 -14 16
-101 17 -1571 17 -1368 -1 -1560 -3 -1591 -16z m-140 -714 l0 -250 -50 0 -50
0 0 250 0 250 50 0 50 0 0 -250z"/>
<path d="M4564 2956 c-12 -8 -43 -65 -69 -126 -69 -157 -91 -180 -252 -256
-110 -52 -133 -67 -139 -88 -15 -60 -2 -73 139 -140 160 -76 184 -100 253
-257 26 -60 54 -115 62 -121 18 -16 76 -15 95 0 8 7 36 62 63 123 68 156 91
179 250 254 129 62 144 74 144 120 0 38 -29 60 -151 114 -156 70 -166 81 -262
293 -44 95 -82 119 -133 84z m67 -297 c29 -58 103 -135 161 -167 26 -15 48
-30 48 -33 0 -3 -16 -13 -36 -22 -53 -26 -143 -115 -171 -171 -27 -53 -27 -53
-62 14 -26 48 -104 123 -157 152 -24 12 -44 25 -44 28 0 3 17 14 38 25 55 30
139 112 169 167 14 26 28 48 29 48 2 0 13 -19 25 -41z"/>
<path d="M890 2087 c-50 -25 -230 -261 -334 -437 -84 -141 -119 -238 -119
-330 -1 -219 149 -408 370 -465 242 -63 506 94 575 344 10 36 18 90 18 119 0
102 -67 257 -190 442 -59 88 -222 301 -243 318 -23 18 -52 22 -77 9z"/>
<path d="M3584 1746 c-10 -8 -42 -65 -69 -127 -67 -153 -102 -188 -253 -254
-118 -51 -142 -71 -142 -115 0 -38 31 -61 154 -116 70 -31 121 -61 144 -85 21
-21 62 -89 97 -160 67 -138 86 -157 139 -135 25 10 38 30 81 125 78 172 96
189 278 271 102 45 117 59 117 108 0 39 -18 53 -134 105 -160 73 -177 88 -241
221 -30 63 -55 119 -55 125 0 16 -51 51 -74 51 -12 0 -31 -6 -42 -14z m153
-404 c25 -24 67 -54 92 -66 l45 -24 -49 -25 c-64 -32 -140 -108 -172 -171
l-25 -49 -30 53 c-38 66 -100 129 -165 165 l-51 29 47 24 c62 33 142 112 171
171 l24 48 33 -56 c18 -31 54 -75 80 -99z"/>
</g>
</svg>
